<svg xmlns="http://www.w3.org/2000/svg" fill="none" viewBox="0 0 80 600">
  <g filter="url(#xQD7r-pWP1a)">
    <path d="M80 0v600-103.069a40 40 0 00-10.953-27.5l-58.094-61.362A40 40 0 010 380.569V199.608a39.998 39.998 0 0113.607-30.056l52.786-46.354A39.998 39.998 0 0080 93.142V0z" fill="url(#xQD7r-pWP1b)" fill-opacity=".8"/>
    <path d="M79.5 102.087v385.9a40.501 40.501 0 00-10.09-18.9l-58.094-61.362A39.499 39.499 0 01.5 380.569V199.608a39.5 39.5 0 0113.437-29.681l52.786-46.353A40.502 40.502 0 0079.5 102.087z" stroke="url(#xQD7r-pWP1c)"/>
  </g>
  <defs>
    <linearGradient id="xQD7r-pWP1b" x1="-8.381" y1="-8.5" x2="197.403" y2="592.839" gradientUnits="userSpaceOnUse">
      <stop stop-color="#4F648A" stop-opacity=".7"/>
      <stop offset="1" stop-color="#768BAB" stop-opacity=".7"/>
    </linearGradient>
    <linearGradient id="xQD7r-pWP1c" x1="0" y1="279.5" x2="80" y2="279.5" gradientUnits="userSpaceOnUse">
      <stop stop-color="#BED7EA"/>
      <stop offset=".785" stop-color="#BBD9E5"/>
      <stop offset="1" stop-color="#BADAE4" stop-opacity="0"/>
    </linearGradient>
    <filter id="xQD7r-pWP1a" x="-20" y="-20" width="120" height="640" filterUnits="userSpaceOnUse" color-interpolation-filters="sRGB">
      <feFlood flood-opacity="0" result="BackgroundImageFix"/>
      <feGaussianBlur in="BackgroundImageFix" stdDeviation="10"/>
      <feComposite in2="SourceAlpha" operator="in" result="effect1_backgroundBlur_737_84"/>
      <feBlend in="SourceGraphic" in2="effect1_backgroundBlur_737_84" result="shape"/>
    </filter>
  </defs>
</svg>
